<?xml version="1.0" encoding="UTF-8"?>
<svg id="Livello_1" data-name="Livello 1" xmlns="http://www.w3.org/2000/svg" viewBox="0 0 500 500">
  <defs>
    <style>
      .cls-1 {
        stroke: #000;
      }

      .cls-1, .cls-2 {
        stroke-miterlimit: 10;
      }

      .cls-2 {
        fill: #f5cca3;
        stroke: #f5cca3;
      }
    </style>
  </defs>
  <rect class="cls-2" x="384.47" y="464.23" width="17.88" height="17.88"/>
  <rect class="cls-2" x="366.58" y="464.23" width="17.88" height="17.88"/>
  <rect class="cls-2" x="348.7" y="464.23" width="17.88" height="17.88"/>
  <rect class="cls-2" x="330.81" y="464.23" width="17.88" height="17.88"/>
  <rect class="cls-2" x="312.93" y="464.23" width="17.88" height="17.88"/>
  <rect class="cls-2" x="295.04" y="464.23" width="17.88" height="17.88"/>
  <rect class="cls-2" x="277.16" y="464.23" width="17.88" height="17.88"/>
  <rect class="cls-2" x="259.27" y="464.23" width="17.88" height="17.88"/>
  <rect class="cls-2" x="240.73" y="464.23" width="17.88" height="17.88"/>
  <rect class="cls-2" x="222.84" y="464.23" width="17.88" height="17.88"/>
  <rect class="cls-2" x="402.35" y="446.35" width="17.88" height="17.88"/>
  <rect class="cls-2" x="384.47" y="446.35" width="17.88" height="17.88"/>
  <rect class="cls-2" x="366.58" y="446.35" width="17.88" height="17.88"/>
  <rect class="cls-2" x="348.7" y="446.35" width="17.88" height="17.88"/>
  <rect class="cls-2" x="330.81" y="446.35" width="17.88" height="17.88"/>
  <rect class="cls-2" x="312.93" y="446.35" width="17.88" height="17.88"/>
  <rect class="cls-2" x="295.04" y="446.35" width="17.88" height="17.88"/>
  <rect class="cls-2" x="277.16" y="446.35" width="17.88" height="17.88"/>
  <rect class="cls-2" x="258.61" y="446.35" width="17.88" height="17.88"/>
  <rect class="cls-2" x="240.73" y="446.35" width="17.88" height="17.88"/>
  <rect class="cls-2" x="420.26" y="430.57" width="17.88" height="17.88"/>
  <rect class="cls-2" x="402.38" y="430.57" width="17.88" height="17.88"/>
  <rect class="cls-2" x="384.49" y="430.57" width="17.88" height="17.88"/>
  <rect class="cls-2" x="366.61" y="430.57" width="17.88" height="17.88"/>
  <rect class="cls-2" x="348.72" y="430.57" width="17.88" height="17.88"/>
  <rect class="cls-2" x="330.84" y="430.57" width="17.88" height="17.88"/>
  <rect class="cls-2" x="312.95" y="430.57" width="17.88" height="17.88"/>
  <rect class="cls-2" x="295.07" y="430.57" width="17.88" height="17.88"/>
  <rect class="cls-2" x="276.52" y="430.57" width="17.88" height="17.88"/>
  <rect class="cls-2" x="258.63" y="430.57" width="17.88" height="17.88"/>
  <rect class="cls-2" x="420.24" y="412.69" width="17.88" height="17.88"/>
  <rect class="cls-2" x="402.35" y="412.69" width="17.88" height="17.88"/>
  <rect class="cls-2" x="384.47" y="412.69" width="17.88" height="17.88"/>
  <rect class="cls-2" x="366.58" y="412.69" width="17.88" height="17.88"/>
  <rect class="cls-2" x="348.7" y="412.69" width="17.88" height="17.88"/>
  <rect class="cls-2" x="330.81" y="412.69" width="17.88" height="17.88"/>
  <rect class="cls-2" x="312.93" y="412.69" width="17.88" height="17.88"/>
  <rect class="cls-2" x="295.04" y="412.69" width="17.88" height="17.88"/>
  <rect class="cls-2" x="276.5" y="412.69" width="17.88" height="17.88"/>
  <rect class="cls-2" x="258.61" y="412.69" width="17.88" height="17.88"/>
  <rect class="cls-2" x="420.58" y="394.14" width="17.88" height="17.88"/>
  <rect class="cls-2" x="402.7" y="394.14" width="17.88" height="17.88"/>
  <rect class="cls-2" x="384.81" y="394.14" width="17.88" height="17.88"/>
  <rect class="cls-2" x="366.93" y="394.14" width="17.88" height="17.88"/>
  <rect class="cls-2" x="349.04" y="394.14" width="17.88" height="17.88"/>
  <rect class="cls-2" x="331.16" y="394.14" width="17.88" height="17.88"/>
  <rect class="cls-2" x="313.27" y="394.14" width="17.88" height="17.88"/>
  <rect class="cls-2" x="295.39" y="394.14" width="17.88" height="17.88"/>
  <rect class="cls-2" x="276.84" y="394.14" width="17.88" height="17.88"/>
  <rect class="cls-2" x="258.95" y="394.14" width="17.88" height="17.88"/>
  <rect class="cls-2" x="420.56" y="376.26" width="17.88" height="17.88"/>
  <rect class="cls-2" x="402.67" y="376.26" width="17.88" height="17.88"/>
  <rect class="cls-2" x="384.79" y="376.26" width="17.88" height="17.88"/>
  <rect class="cls-2" x="366.9" y="376.26" width="17.88" height="17.88"/>
  <rect class="cls-2" x="349.02" y="376.26" width="17.88" height="17.88"/>
  <rect class="cls-2" x="331.13" y="376.26" width="17.88" height="17.88"/>
  <rect class="cls-2" x="313.25" y="376.26" width="17.88" height="17.88"/>
  <rect class="cls-2" x="295.36" y="376.26" width="17.88" height="17.88"/>
  <rect class="cls-2" x="276.82" y="376.26" width="17.88" height="17.88"/>
  <rect class="cls-2" x="258.93" y="376.26" width="17.88" height="17.88"/>
  <rect class="cls-2" x="420.58" y="358.37" width="17.88" height="17.88"/>
  <rect class="cls-2" x="402.7" y="358.37" width="17.88" height="17.88"/>
  <rect class="cls-2" x="384.81" y="358.37" width="17.88" height="17.88"/>
  <rect class="cls-2" x="366.93" y="358.37" width="17.88" height="17.88"/>
  <rect class="cls-2" x="349.04" y="358.37" width="17.88" height="17.88"/>
  <rect class="cls-2" x="331.16" y="358.37" width="17.88" height="17.88"/>
  <rect class="cls-2" x="313.27" y="358.37" width="17.88" height="17.88"/>
  <rect class="cls-2" x="295.39" y="358.37" width="17.88" height="17.88"/>
  <rect class="cls-2" x="276.84" y="358.37" width="17.88" height="17.88"/>
  <rect class="cls-2" x="258.95" y="358.37" width="17.88" height="17.88"/>
  <rect class="cls-2" x="420.56" y="340.49" width="17.88" height="17.88"/>
  <rect class="cls-2" x="402.67" y="340.49" width="17.88" height="17.88"/>
  <rect class="cls-2" x="384.79" y="340.49" width="17.88" height="17.88"/>
  <rect class="cls-2" x="366.9" y="340.49" width="17.88" height="17.88"/>
  <rect class="cls-2" x="349.02" y="340.49" width="17.88" height="17.88"/>
  <rect class="cls-2" x="331.13" y="340.49" width="17.88" height="17.88"/>
  <rect class="cls-2" x="313.25" y="340.49" width="17.88" height="17.88"/>
  <rect class="cls-2" x="295.36" y="340.49" width="17.88" height="17.88"/>
  <rect class="cls-2" x="276.82" y="340.49" width="17.88" height="17.88"/>
  <rect class="cls-2" x="258.93" y="340.49" width="17.88" height="17.88"/>
  <rect class="cls-2" x="420.58" y="322.6" width="17.88" height="17.88"/>
  <rect class="cls-2" x="402.7" y="322.6" width="17.88" height="17.88"/>
  <rect class="cls-2" x="384.81" y="322.6" width="17.88" height="17.88"/>
  <rect class="cls-2" x="366.93" y="322.6" width="17.88" height="17.88"/>
  <rect class="cls-2" x="349.04" y="322.6" width="17.88" height="17.88"/>
  <rect class="cls-2" x="331.16" y="322.6" width="17.88" height="17.88"/>
  <rect class="cls-2" x="313.27" y="322.6" width="17.88" height="17.88"/>
  <rect class="cls-2" x="295.39" y="322.6" width="17.88" height="17.88"/>
  <rect class="cls-2" x="276.84" y="322.6" width="17.88" height="17.88"/>
  <rect class="cls-2" x="258.95" y="322.6" width="17.88" height="17.88"/>
  <rect class="cls-2" x="420.56" y="304.72" width="17.88" height="17.88"/>
  <rect class="cls-2" x="402.67" y="304.72" width="17.88" height="17.88"/>
  <rect class="cls-2" x="384.79" y="304.72" width="17.88" height="17.88"/>
  <rect class="cls-2" x="366.9" y="304.72" width="17.88" height="17.88"/>
  <rect class="cls-2" x="349.02" y="304.72" width="17.88" height="17.88"/>
  <rect class="cls-2" x="331.13" y="304.72" width="17.88" height="17.88"/>
  <rect class="cls-2" x="313.25" y="304.72" width="17.88" height="17.88"/>
  <rect class="cls-2" x="295.36" y="304.72" width="17.88" height="17.88"/>
  <rect class="cls-2" x="276.82" y="304.72" width="17.88" height="17.88"/>
  <rect class="cls-2" x="258.93" y="304.72" width="17.88" height="17.88"/>
  <rect class="cls-2" x="420.58" y="286.83" width="17.88" height="17.88"/>
  <rect class="cls-2" x="402.7" y="286.83" width="17.88" height="17.88"/>
  <rect class="cls-2" x="384.81" y="286.83" width="17.88" height="17.88"/>
  <rect class="cls-2" x="366.93" y="286.83" width="17.88" height="17.88"/>
  <rect class="cls-2" x="349.04" y="286.83" width="17.88" height="17.88"/>
  <rect class="cls-2" x="331.16" y="286.83" width="17.88" height="17.88"/>
  <rect class="cls-2" x="313.27" y="286.83" width="17.88" height="17.88"/>
  <rect class="cls-2" x="295.39" y="286.83" width="17.88" height="17.88"/>
  <rect class="cls-2" x="276.84" y="286.83" width="17.88" height="17.88"/>
  <rect class="cls-2" x="258.95" y="286.83" width="17.88" height="17.88"/>
  <rect class="cls-2" x="420.56" y="268.95" width="17.88" height="17.88"/>
  <rect class="cls-2" x="402.67" y="268.95" width="17.88" height="17.88"/>
  <rect class="cls-2" x="384.79" y="268.95" width="17.88" height="17.88"/>
  <rect class="cls-2" x="366.9" y="268.95" width="17.88" height="17.88"/>
  <rect class="cls-2" x="349.02" y="268.95" width="17.88" height="17.88"/>
  <rect class="cls-2" x="331.13" y="268.95" width="17.88" height="17.88"/>
  <rect class="cls-2" x="313.25" y="268.95" width="17.88" height="17.88"/>
  <rect class="cls-2" x="295.36" y="268.95" width="17.88" height="17.88"/>
  <rect class="cls-2" x="276.82" y="268.95" width="17.88" height="17.88"/>
  <rect class="cls-2" x="258.93" y="268.95" width="17.88" height="17.88"/>
  <rect class="cls-2" x="420.58" y="250.73" width="17.88" height="17.88"/>
  <rect class="cls-2" x="402.7" y="250.73" width="17.88" height="17.88"/>
  <rect class="cls-2" x="384.81" y="250.73" width="17.88" height="17.88"/>
  <rect class="cls-2" x="366.93" y="250.73" width="17.88" height="17.88"/>
  <rect class="cls-2" x="349.04" y="250.73" width="17.88" height="17.88"/>
  <rect class="cls-2" x="331.16" y="250.73" width="17.88" height="17.88"/>
  <rect class="cls-2" x="313.27" y="250.73" width="17.88" height="17.88"/>
  <rect class="cls-2" x="295.39" y="250.73" width="17.88" height="17.88"/>
  <rect class="cls-2" x="276.84" y="250.73" width="17.88" height="17.88"/>
  <rect class="cls-2" x="258.95" y="250.73" width="17.88" height="17.88"/>
  <rect class="cls-2" x="420.56" y="232.84" width="17.88" height="17.88"/>
  <rect class="cls-2" x="402.67" y="232.84" width="17.88" height="17.88"/>
  <rect class="cls-2" x="384.79" y="232.84" width="17.88" height="17.88"/>
  <rect class="cls-2" x="349.02" y="232.84" width="17.88" height="17.88"/>
  <rect class="cls-2" x="331.13" y="232.84" width="17.88" height="17.88"/>
  <rect class="cls-2" x="313.25" y="232.84" width="17.88" height="17.88"/>
  <rect class="cls-2" x="295.36" y="232.84" width="17.88" height="17.88"/>
  <rect class="cls-2" x="276.82" y="232.84" width="17.88" height="17.88"/>
  <rect class="cls-2" x="258.93" y="232.84" width="17.88" height="17.88"/>
  <rect class="cls-2" x="420.6" y="213.96" width="17.88" height="17.88"/>
  <rect class="cls-2" x="402.72" y="213.96" width="17.88" height="17.88"/>
  <rect class="cls-2" x="384.83" y="213.96" width="17.88" height="17.88"/>
  <rect class="cls-2" x="349.06" y="213.96" width="17.88" height="17.88"/>
  <rect class="cls-2" x="331.18" y="213.96" width="17.88" height="17.88"/>
  <rect class="cls-2" x="313.29" y="213.96" width="17.88" height="17.88"/>
  <rect class="cls-2" x="276.86" y="213.96" width="17.88" height="17.88"/>
  <rect class="cls-2" x="258.98" y="213.96" width="17.88" height="17.88"/>
  <rect class="cls-2" x="420.58" y="196.08" width="17.88" height="17.88"/>
  <rect class="cls-2" x="402.7" y="196.08" width="17.88" height="17.88"/>
  <rect class="cls-2" x="384.81" y="196.08" width="17.88" height="17.88"/>
  <rect class="cls-2" x="349.04" y="196.08" width="17.88" height="17.88"/>
  <rect class="cls-2" x="331.16" y="196.08" width="17.88" height="17.88"/>
  <rect class="cls-2" x="313.27" y="196.08" width="17.88" height="17.88"/>
  <rect class="cls-2" x="276.84" y="196.08" width="17.88" height="17.88"/>
  <rect class="cls-2" x="258.95" y="196.08" width="17.88" height="17.88"/>
  <rect class="cls-2" x="420.58" y="178.86" width="17.88" height="17.88"/>
  <rect class="cls-2" x="402.7" y="178.86" width="17.88" height="17.88"/>
  <rect class="cls-2" x="384.81" y="178.86" width="17.88" height="17.88"/>
  <rect class="cls-2" x="349.04" y="178.86" width="17.88" height="17.88"/>
  <rect class="cls-2" x="331.16" y="178.86" width="17.88" height="17.88"/>
  <rect class="cls-2" x="313.27" y="178.86" width="17.88" height="17.88"/>
  <rect class="cls-2" x="276.84" y="178.86" width="17.88" height="17.88"/>
  <rect class="cls-2" x="258.95" y="178.86" width="17.88" height="17.88"/>
  <rect class="cls-2" x="420.56" y="160.97" width="17.88" height="17.88"/>
  <rect class="cls-2" x="402.67" y="160.97" width="17.88" height="17.88"/>
  <rect class="cls-2" x="384.79" y="160.97" width="17.88" height="17.88"/>
  <rect class="cls-2" x="349.02" y="160.97" width="17.88" height="17.88"/>
  <rect class="cls-2" x="331.13" y="160.97" width="17.88" height="17.88"/>
  <rect class="cls-2" x="313.25" y="160.97" width="17.88" height="17.88"/>
  <rect class="cls-2" x="276.82" y="160.97" width="17.88" height="17.88"/>
  <rect class="cls-2" x="258.93" y="160.97" width="17.88" height="17.88"/>
  <rect class="cls-2" x="420.58" y="143.09" width="17.88" height="17.88"/>
  <rect class="cls-2" x="402.7" y="143.09" width="17.88" height="17.88"/>
  <rect class="cls-2" x="384.81" y="143.09" width="17.88" height="17.88"/>
  <rect class="cls-2" x="349.04" y="143.09" width="17.88" height="17.88"/>
  <rect class="cls-2" x="331.16" y="143.09" width="17.88" height="17.88"/>
  <rect class="cls-2" x="313.27" y="143.09" width="17.88" height="17.88"/>
  <rect class="cls-2" x="276.84" y="143.09" width="17.88" height="17.88"/>
  <rect class="cls-2" x="258.95" y="143.09" width="17.88" height="17.88"/>
  <rect class="cls-2" x="420.56" y="125.2" width="17.88" height="17.88"/>
  <rect class="cls-2" x="402.67" y="125.2" width="17.88" height="17.88"/>
  <rect class="cls-2" x="384.79" y="125.2" width="17.88" height="17.88"/>
  <rect class="cls-2" x="349.02" y="125.2" width="17.88" height="17.88"/>
  <rect class="cls-2" x="331.13" y="125.2" width="17.88" height="17.88"/>
  <rect class="cls-2" x="313.25" y="125.2" width="17.88" height="17.88"/>
  <rect class="cls-2" x="276.82" y="125.2" width="17.88" height="17.88"/>
  <rect class="cls-2" x="258.93" y="125.2" width="17.88" height="17.88"/>
  <rect class="cls-2" x="349.05" y="106.65" width="17.88" height="17.88"/>
  <rect class="cls-2" x="331.17" y="106.65" width="17.88" height="17.88"/>
  <rect class="cls-2" x="313.28" y="106.65" width="17.88" height="17.88"/>
  <rect class="cls-2" x="349.07" y="88.77" width="17.88" height="17.88"/>
  <rect class="cls-2" x="331.19" y="88.77" width="17.88" height="17.88"/>
  <rect class="cls-2" x="313.3" y="88.77" width="17.88" height="17.88"/>
  <rect class="cls-2" x="349.05" y="70.88" width="17.88" height="17.88"/>
  <rect class="cls-2" x="331.17" y="70.88" width="17.88" height="17.88"/>
  <rect class="cls-2" x="313.28" y="70.88" width="17.88" height="17.88"/>
  <rect class="cls-2" x="240.57" y="430.57" width="17.88" height="17.88"/>
  <rect class="cls-2" x="240.54" y="412.69" width="17.88" height="17.88"/>
  <rect class="cls-2" x="240.89" y="394.14" width="17.88" height="17.88"/>
  <rect class="cls-2" x="240.86" y="376.26" width="17.88" height="17.88"/>
  <rect class="cls-2" x="240.89" y="358.37" width="17.88" height="17.88"/>
  <rect class="cls-2" x="240.86" y="340.49" width="17.88" height="17.88"/>
  <rect class="cls-2" x="240.89" y="322.6" width="17.88" height="17.88"/>
  <rect class="cls-2" x="240.86" y="304.72" width="17.88" height="17.88"/>
  <rect class="cls-2" x="240.89" y="286.83" width="17.88" height="17.88"/>
  <rect class="cls-2" x="240.86" y="268.95" width="17.88" height="17.88"/>
  <rect class="cls-2" x="240.89" y="250.73" width="17.88" height="17.88"/>
  <rect class="cls-2" x="240.86" y="232.84" width="17.88" height="17.88"/>
  <rect class="cls-2" x="240.91" y="213.96" width="17.88" height="17.88"/>
  <rect class="cls-2" x="240.89" y="196.08" width="17.88" height="17.88"/>
  <rect class="cls-2" x="240.89" y="178.86" width="17.88" height="17.88"/>
  <rect class="cls-2" x="240.86" y="160.97" width="17.88" height="17.88"/>
  <rect class="cls-2" x="240.89" y="143.09" width="17.88" height="17.88"/>
  <rect class="cls-2" x="240.86" y="125.2" width="17.88" height="17.88"/>
  <rect class="cls-2" x="277.27" y="106.32" width="17.88" height="17.88"/>
  <rect class="cls-2" x="259.39" y="106.32" width="17.88" height="17.88"/>
  <rect class="cls-2" x="277.25" y="88.44" width="17.88" height="17.88"/>
  <rect class="cls-2" x="259.36" y="88.44" width="17.88" height="17.88"/>
  <rect class="cls-2" x="277.25" y="71.22" width="17.88" height="17.88"/>
  <rect class="cls-2" x="259.36" y="71.22" width="17.88" height="17.88"/>
  <rect class="cls-2" x="277.23" y="53.33" width="17.88" height="17.88"/>
  <rect class="cls-2" x="259.34" y="53.33" width="17.88" height="17.88"/>
  <rect class="cls-2" x="277.25" y="35.45" width="17.88" height="17.88"/>
  <rect class="cls-2" x="259.36" y="35.45" width="17.88" height="17.88"/>
  <rect class="cls-2" x="277.23" y="17.56" width="17.88" height="17.88"/>
  <rect class="cls-2" x="259.34" y="17.56" width="17.88" height="17.88"/>
  <rect class="cls-2" x="241.32" y="106.32" width="17.88" height="17.88"/>
  <rect class="cls-2" x="241.3" y="88.44" width="17.88" height="17.88"/>
  <rect class="cls-2" x="241.3" y="71.22" width="17.88" height="17.88"/>
  <rect class="cls-2" x="241.28" y="53.33" width="17.88" height="17.88"/>
  <rect class="cls-2" x="241.3" y="35.45" width="17.88" height="17.88"/>
  <rect class="cls-2" x="241.28" y="17.56" width="17.88" height="17.88"/>
  <rect class="cls-2" x="223.26" y="447.24" width="17.88" height="17.88"/>
  <rect class="cls-2" x="204.72" y="447.24" width="17.88" height="17.88"/>
  <rect class="cls-2" x="186.83" y="447.24" width="17.88" height="17.88"/>
  <rect class="cls-2" x="222.62" y="431.46" width="17.88" height="17.88"/>
  <rect class="cls-2" x="204.74" y="431.46" width="17.88" height="17.88"/>
  <rect class="cls-2" x="222.6" y="413.58" width="17.88" height="17.88"/>
  <rect class="cls-2" x="204.72" y="413.58" width="17.88" height="17.88"/>
  <rect class="cls-2" x="222.94" y="395.03" width="17.88" height="17.88"/>
  <rect class="cls-2" x="205.06" y="395.03" width="17.88" height="17.88"/>
  <rect class="cls-2" x="222.92" y="377.15" width="17.88" height="17.88"/>
  <rect class="cls-2" x="205.04" y="377.15" width="17.88" height="17.88"/>
  <rect class="cls-2" x="222.94" y="359.26" width="17.88" height="17.88"/>
  <rect class="cls-2" x="205.06" y="359.26" width="17.88" height="17.88"/>
  <rect class="cls-2" x="222.92" y="341.38" width="17.88" height="17.88"/>
  <rect class="cls-2" x="205.04" y="341.38" width="17.88" height="17.88"/>
  <rect class="cls-2" x="222.94" y="323.49" width="17.88" height="17.88"/>
  <rect class="cls-2" x="205.06" y="323.49" width="17.88" height="17.88"/>
  <rect class="cls-2" x="222.92" y="305.61" width="17.88" height="17.88"/>
  <rect class="cls-2" x="205.04" y="305.61" width="17.88" height="17.88"/>
  <rect class="cls-2" x="222.94" y="287.72" width="17.88" height="17.88"/>
  <rect class="cls-2" x="205.06" y="287.72" width="17.88" height="17.88"/>
  <rect class="cls-2" x="222.92" y="269.84" width="17.88" height="17.88"/>
  <rect class="cls-2" x="205.04" y="269.84" width="17.88" height="17.88"/>
  <rect class="cls-2" x="222.94" y="251.62" width="17.88" height="17.88"/>
  <rect class="cls-2" x="205.06" y="251.62" width="17.88" height="17.88"/>
  <rect class="cls-2" x="222.92" y="233.73" width="17.88" height="17.88"/>
  <rect class="cls-2" x="205.04" y="233.73" width="17.88" height="17.88"/>
  <rect class="cls-2" x="186.67" y="431.46" width="17.88" height="17.88"/>
  <rect class="cls-2" x="186.65" y="413.58" width="17.88" height="17.88"/>
  <rect class="cls-2" x="186.99" y="395.03" width="17.88" height="17.88"/>
  <rect class="cls-2" x="186.97" y="377.15" width="17.88" height="17.88"/>
  <rect class="cls-2" x="186.99" y="359.26" width="17.88" height="17.88"/>
  <rect class="cls-2" x="186.97" y="341.38" width="17.88" height="17.88"/>
  <rect class="cls-2" x="186.99" y="323.49" width="17.88" height="17.88"/>
  <rect class="cls-2" x="186.97" y="305.61" width="17.88" height="17.88"/>
  <rect class="cls-2" x="186.99" y="287.72" width="17.88" height="17.88"/>
  <rect class="cls-2" x="186.97" y="269.84" width="17.88" height="17.88"/>
  <rect class="cls-2" x="186.99" y="251.62" width="17.88" height="17.88"/>
  <rect class="cls-2" x="186.97" y="233.73" width="17.88" height="17.88"/>
  <rect class="cls-2" x="204.96" y="215.85" width="17.88" height="17.88"/>
  <rect class="cls-2" x="204.93" y="197.96" width="17.88" height="17.88"/>
  <rect class="cls-2" x="204.96" y="180.08" width="17.88" height="17.88"/>
  <rect class="cls-2" x="204.93" y="162.19" width="17.88" height="17.88"/>
  <rect class="cls-2" x="204.96" y="143.98" width="17.88" height="17.88"/>
  <rect class="cls-2" x="204.93" y="126.09" width="17.88" height="17.88"/>
  <rect class="cls-2" x="186.89" y="215.85" width="17.88" height="17.88"/>
  <rect class="cls-2" x="186.87" y="197.96" width="17.88" height="17.88"/>
  <rect class="cls-2" x="186.89" y="180.08" width="17.88" height="17.88"/>
  <rect class="cls-2" x="186.87" y="162.19" width="17.88" height="17.88"/>
  <rect class="cls-2" x="186.89" y="143.98" width="17.88" height="17.88"/>
  <rect class="cls-2" x="186.87" y="126.09" width="17.88" height="17.88"/>
  <rect class="cls-2" x="204.61" y="107.88" width="17.88" height="17.88"/>
  <rect class="cls-2" x="204.64" y="89.66" width="17.88" height="17.88"/>
  <rect class="cls-2" x="204.61" y="71.78" width="17.88" height="17.88"/>
  <rect class="cls-2" x="186.55" y="107.88" width="17.88" height="17.88"/>
  <rect class="cls-2" x="186.57" y="89.66" width="17.88" height="17.88"/>
  <rect class="cls-2" x="186.55" y="71.78" width="17.88" height="17.88"/>
  <rect class="cls-2" x="169.04" y="428.79" width="17.88" height="17.88"/>
  <rect class="cls-2" x="169.01" y="410.91" width="17.88" height="17.88"/>
  <rect class="cls-2" x="169.36" y="392.36" width="17.88" height="17.88"/>
  <rect class="cls-2" x="169.34" y="374.47" width="17.88" height="17.88"/>
  <rect class="cls-2" x="169.36" y="356.59" width="17.88" height="17.88"/>
  <rect class="cls-2" x="169.34" y="338.7" width="17.88" height="17.88"/>
  <rect class="cls-2" x="169.36" y="320.82" width="17.88" height="17.88"/>
  <rect class="cls-2" x="151.31" y="392.36" width="17.88" height="17.88"/>
  <rect class="cls-2" x="151.29" y="374.47" width="17.88" height="17.88"/>
  <rect class="cls-2" x="151.31" y="356.59" width="17.88" height="17.88"/>
  <rect class="cls-2" x="151.29" y="338.7" width="17.88" height="17.88"/>
  <rect class="cls-2" x="151.31" y="320.82" width="17.88" height="17.88"/>
  <rect class="cls-2" x="133.43" y="374.81" width="17.88" height="17.88"/>
  <rect class="cls-2" x="133.41" y="356.92" width="17.88" height="17.88"/>
  <rect class="cls-2" x="133.43" y="339.04" width="17.88" height="17.88"/>
  <rect class="cls-2" x="133.41" y="321.15" width="17.88" height="17.88"/>
  <rect class="cls-2" x="133.43" y="303.27" width="17.88" height="17.88"/>
  <rect class="cls-2" x="115.54" y="356.59" width="17.88" height="17.88"/>
  <rect class="cls-2" x="115.52" y="338.7" width="17.88" height="17.88"/>
  <rect class="cls-2" x="115.54" y="320.82" width="17.88" height="17.88"/>
  <rect class="cls-2" x="115.52" y="302.93" width="17.88" height="17.88"/>
  <rect class="cls-2" x="115.54" y="285.05" width="17.88" height="17.88"/>
  <rect class="cls-2" x="97.66" y="338.37" width="17.88" height="17.88"/>
  <rect class="cls-2" x="97.64" y="320.49" width="17.88" height="17.88"/>
  <rect class="cls-2" x="97.66" y="302.6" width="17.88" height="17.88"/>
  <rect class="cls-2" x="97.64" y="284.72" width="17.88" height="17.88"/>
  <rect class="cls-2" x="97.66" y="266.83" width="17.88" height="17.88"/>
  <rect class="cls-2" x="79.75" y="320.49" width="17.88" height="17.88"/>
  <rect class="cls-2" x="79.77" y="302.6" width="17.88" height="17.88"/>
  <rect class="cls-2" x="79.75" y="284.72" width="17.88" height="17.88"/>
  <rect class="cls-2" x="79.77" y="266.83" width="17.88" height="17.88"/>
  <rect class="cls-2" x="61.89" y="302.6" width="17.88" height="17.88"/>
  <rect class="cls-2" x="61.87" y="284.72" width="17.88" height="17.88"/>
  <rect class="cls-2" x="61.89" y="266.83" width="17.88" height="17.88"/>
  <g>
    <rect class="cls-1" x="115.53" y="266.71" width="17.88" height="17.88"/>
    <rect class="cls-1" x="133.42" y="285.38" width="17.88" height="17.88"/>
    <rect class="cls-1" x="97.65" y="248.82" width="17.88" height="17.88"/>
    <rect class="cls-1" x="79.76" y="248.82" width="17.88" height="17.88"/>
    <rect class="cls-1" x="61.88" y="248.82" width="17.88" height="17.88"/>
    <rect class="cls-1" x="43.99" y="266.71" width="17.88" height="17.88"/>
    <rect class="cls-1" x="43.99" y="285.38" width="17.88" height="17.88"/>
    <rect class="cls-1" x="43.99" y="303.27" width="17.88" height="17.88"/>
    <rect class="cls-1" x="61.88" y="321.15" width="17.88" height="17.88"/>
    <rect class="cls-1" x="79.76" y="339.04" width="17.88" height="17.88"/>
    <rect class="cls-1" x="97.65" y="356.92" width="17.88" height="17.88"/>
    <rect class="cls-1" x="115.53" y="374.81" width="17.88" height="17.88"/>
    <rect class="cls-1" x="133.42" y="392.69" width="17.88" height="17.88"/>
    <rect class="cls-1" x="151.3" y="410.58" width="17.88" height="17.88"/>
    <rect class="cls-1" x="151.3" y="428.46" width="17.88" height="17.88"/>
    <rect class="cls-1" x="169.19" y="446.35" width="17.88" height="17.88"/>
    <rect class="cls-1" x="187.07" y="464.23" width="17.88" height="17.88"/>
    <rect class="cls-1" x="204.96" y="464.23" width="17.88" height="17.88"/>
    <rect class="cls-1" x="222.84" y="482.12" width="17.88" height="17.88"/>
    <rect class="cls-1" x="241.39" y="482.12" width="17.88" height="17.88"/>
    <rect class="cls-1" x="259.27" y="482.12" width="17.88" height="17.88"/>
    <rect class="cls-1" x="277.16" y="482.12" width="17.88" height="17.88"/>
    <rect class="cls-1" x="295.04" y="482.12" width="17.88" height="17.88"/>
    <rect class="cls-1" x="312.93" y="482.12" width="17.88" height="17.88"/>
    <rect class="cls-1" x="330.81" y="482.12" width="17.88" height="17.88"/>
    <rect class="cls-1" x="348.7" y="482.12" width="17.88" height="17.88"/>
    <rect class="cls-1" x="366.58" y="482.12" width="17.88" height="17.88"/>
    <rect class="cls-1" x="384.47" y="482.12" width="17.88" height="17.88"/>
    <rect class="cls-1" x="402.35" y="464.23" width="17.88" height="17.88"/>
    <rect class="cls-1" x="420.24" y="448.46" width="17.88" height="17.88"/>
    <rect class="cls-1" x="438.12" y="430.57" width="17.88" height="17.88"/>
    <rect class="cls-1" x="438.12" y="412.69" width="17.88" height="17.88" transform="translate(25.44 868.7) rotate(-90)"/>
    <rect class="cls-1" x="438.12" y="394.14" width="17.88" height="17.88" transform="translate(43.98 850.15) rotate(-90)"/>
    <rect class="cls-1" x="438.12" y="376.26" width="17.88" height="17.88" transform="translate(61.87 832.26) rotate(-90)"/>
    <rect class="cls-1" x="438.12" y="358.37" width="17.88" height="17.88" transform="translate(79.75 814.38) rotate(-90)"/>
    <rect class="cls-1" x="438.12" y="340.49" width="17.88" height="17.88" transform="translate(97.64 796.49) rotate(-90)"/>
    <rect class="cls-1" x="438.12" y="304.72" width="17.88" height="17.88" transform="translate(133.41 760.72) rotate(-90)"/>
    <rect class="cls-1" x="438.12" y="286.83" width="17.88" height="17.88" transform="translate(151.29 742.84) rotate(-90)"/>
    <rect class="cls-1" x="438.12" y="322.6" width="17.88" height="17.88" transform="translate(115.52 778.61) rotate(-90)"/>
    <rect class="cls-1" x="438.12" y="268.95" width="17.88" height="17.88"/>
    <rect class="cls-1" x="438.12" y="251.06" width="17.88" height="17.88" transform="translate(187.06 707.07) rotate(-90)"/>
    <rect class="cls-1" x="438.12" y="232.51" width="17.88" height="17.88" transform="translate(205.61 688.52) rotate(-90)"/>
    <rect class="cls-1" x="438.12" y="214.63" width="17.88" height="17.88" transform="translate(223.5 670.64) rotate(-90)"/>
    <rect class="cls-1" x="438.12" y="196.74" width="17.88" height="17.88" transform="translate(241.38 652.75) rotate(-90)"/>
    <rect class="cls-1" x="438.12" y="178.86" width="17.88" height="17.88" transform="translate(259.27 634.87) rotate(-90)"/>
    <rect class="cls-1" x="438.12" y="143.09" width="17.88" height="17.88" transform="translate(295.04 599.1) rotate(-90)"/>
    <rect class="cls-1" x="438.12" y="125.2" width="17.88" height="17.88" transform="translate(312.92 581.21) rotate(-90)"/>
    <rect class="cls-1" x="438.12" y="160.97" width="17.88" height="17.88" transform="translate(277.15 616.98) rotate(-90)"/>
    <rect class="cls-1" x="420.24" y="107.32" width="17.88" height="17.88" transform="translate(312.92 545.44) rotate(-90)"/>
    <rect class="cls-1" x="402.35" y="107.32" width="17.88" height="17.88" transform="translate(295.04 527.56) rotate(-90)"/>
    <rect class="cls-1" x="384.47" y="107.32" width="17.88" height="17.88" transform="translate(277.15 509.67) rotate(-90)"/>
    <rect class="cls-1" x="366.58" y="107.32" width="17.88" height="17.88" transform="translate(259.27 491.79) rotate(-90)"/>
    <rect class="cls-1" x="366.58" y="89.43" width="17.88" height="17.88" transform="translate(277.15 473.9) rotate(-90)"/>
    <rect class="cls-1" x="366.58" y="71.55" width="17.88" height="17.88" transform="translate(295.04 456.02) rotate(-90)"/>
    <rect class="cls-1" x="366.58" y="125.2" width="17.88" height="17.88" transform="translate(241.38 509.67) rotate(-90)"/>
    <rect class="cls-1" x="366.58" y="143.09" width="17.88" height="17.88" transform="translate(223.5 527.56) rotate(-90)"/>
    <rect class="cls-1" x="366.58" y="214.63" width="17.88" height="17.88" transform="translate(151.96 599.1) rotate(-90)"/>
    <rect class="cls-1" x="366.58" y="196.74" width="17.88" height="17.88" transform="translate(169.84 581.21) rotate(-90)"/>
    <rect class="cls-1" x="366.58" y="178.86" width="17.88" height="17.88" transform="translate(187.73 563.33) rotate(-90)"/>
    <rect class="cls-1" x="366.58" y="160.97" width="17.88" height="17.88" transform="translate(205.61 545.44) rotate(-90)"/>
    <rect class="cls-1" x="366.58" y="232.51" width="17.88" height="17.88" transform="translate(134.07 616.98) rotate(-90)"/>
    <rect class="cls-1" x="348.7" y="53.66" width="17.88" height="17.88" transform="translate(295.04 420.25) rotate(-90)"/>
    <rect class="cls-1" x="330.81" y="53.66" width="17.88" height="17.88" transform="translate(277.15 402.36) rotate(-90)"/>
    <rect class="cls-1" x="312.93" y="53.66" width="17.88" height="17.88" transform="translate(259.27 384.48) rotate(-90)"/>
    <rect class="cls-1" x="295.04" y="53.66" width="17.88" height="17.88" transform="translate(241.38 366.59) rotate(-90)"/>
    <rect class="cls-1" x="295.04" y="71.55" width="17.88" height="17.88" transform="translate(223.5 384.48) rotate(-90)"/>
    <rect class="cls-1" x="295.04" y="35.78" width="17.88" height="17.88" transform="translate(259.27 348.71) rotate(-90)"/>
    <rect class="cls-1" x="295.04" y="17.88" width="17.88" height="17.88" transform="translate(277.16 330.81) rotate(-90)"/>
    <rect class="cls-1" x="277.16" y="0" width="17.88" height="17.88" transform="translate(277.16 295.04) rotate(-90)"/>
    <rect class="cls-1" x="259.27" y="0" width="17.88" height="17.88" transform="translate(259.27 277.16) rotate(-90)"/>
    <rect class="cls-1" x="241.39" y="0" width="17.88" height="17.88" transform="translate(241.39 259.27) rotate(-90)"/>
    <rect class="cls-1" x="223.5" y="17.88" width="17.88" height="17.88" transform="translate(205.62 259.27) rotate(-90)"/>
    <rect class="cls-1" x="223.5" y="35.78" width="17.88" height="17.88" transform="translate(187.73 277.17) rotate(-90)"/>
    <rect class="cls-1" x="223.5" y="53.66" width="17.88" height="17.88" transform="translate(169.84 295.05) rotate(-90)"/>
    <rect class="cls-1" x="205.62" y="53.66" width="17.88" height="17.88" transform="translate(151.96 277.17) rotate(-90)"/>
    <rect class="cls-1" x="187.74" y="53.66" width="17.88" height="17.88" transform="translate(134.07 259.28) rotate(-90)"/>
    <rect class="cls-1" x="169.85" y="71.55" width="17.88" height="17.88" transform="translate(98.3 259.28) rotate(-90)"/>
    <rect class="cls-1" x="151.3" y="304.38" width="17.88" height="17.88" transform="translate(-153.08 473.57) rotate(-90)"/>
    <rect class="cls-1" x="169.85" y="304.38" width="17.88" height="17.88" transform="translate(-134.53 492.12) rotate(-90)"/>
    <rect class="cls-1" x="169.85" y="268.61" width="17.88" height="17.88" transform="translate(-98.76 456.35) rotate(-90)"/>
    <rect class="cls-1" x="169.85" y="250.73" width="17.88" height="17.88" transform="translate(-80.88 438.46) rotate(-90)"/>
    <rect class="cls-1" x="169.85" y="286.5" width="17.88" height="17.88" transform="translate(-116.65 474.23) rotate(-90)"/>
    <rect class="cls-1" x="169.85" y="232.84" width="17.88" height="17.88"/>
    <rect class="cls-1" x="169.85" y="214.96" width="17.88" height="17.88" transform="translate(-45.11 402.69) rotate(-90)"/>
    <rect class="cls-1" x="169.85" y="196.41" width="17.88" height="17.88" transform="translate(-26.56 384.15) rotate(-90)"/>
    <rect class="cls-1" x="169.85" y="178.53" width="17.88" height="17.88" transform="translate(-8.68 366.26) rotate(-90)"/>
    <rect class="cls-1" x="169.85" y="160.64" width="17.88" height="17.88" transform="translate(9.21 348.38) rotate(-90)"/>
    <rect class="cls-1" x="169.85" y="142.76" width="17.88" height="17.88" transform="translate(27.09 330.49) rotate(-90)"/>
    <rect class="cls-1" x="169.85" y="106.99" width="17.88" height="17.88" transform="translate(62.86 294.72) rotate(-90)"/>
    <rect class="cls-1" x="169.85" y="89.1" width="17.88" height="17.88" transform="translate(80.75 276.84) rotate(-90)"/>
    <rect class="cls-1" x="169.85" y="124.87" width="17.88" height="17.88" transform="translate(44.98 312.61) rotate(-90)"/>
    <rect class="cls-1" x="223.5" y="197.41" width="17.88" height="17.88" transform="translate(26.1 438.79) rotate(-90)"/>
    <rect class="cls-1" x="223.5" y="178.86" width="17.88" height="17.88" transform="translate(44.65 420.25) rotate(-90)"/>
    <rect class="cls-1" x="223.5" y="160.97" width="17.88" height="17.88" transform="translate(62.53 402.36) rotate(-90)"/>
    <rect class="cls-1" x="223.5" y="143.09" width="17.88" height="17.88" transform="translate(80.42 384.48) rotate(-90)"/>
    <rect class="cls-1" x="223.5" y="125.2" width="17.88" height="17.88" transform="translate(98.3 366.59) rotate(-90)"/>
    <rect class="cls-1" x="223.5" y="89.43" width="17.88" height="17.88" transform="translate(134.07 330.82) rotate(-90)"/>
    <rect class="cls-1" x="223.5" y="71.55" width="17.88" height="17.88" transform="translate(151.96 312.94) rotate(-90)"/>
    <rect class="cls-1" x="223.5" y="107.32" width="17.88" height="17.88" transform="translate(116.19 348.71) rotate(-90)"/>
    <rect class="cls-1" x="295.04" y="214.63" width="17.88" height="17.88" transform="translate(80.42 527.56) rotate(-90)"/>
    <rect class="cls-1" x="295.04" y="196.08" width="17.88" height="17.88" transform="translate(98.96 509.01) rotate(-90)"/>
    <rect class="cls-1" x="295.04" y="178.19" width="17.88" height="17.88" transform="translate(116.85 491.12) rotate(-90)"/>
    <rect class="cls-1" x="295.04" y="160.31" width="17.88" height="17.88" transform="translate(134.73 473.24) rotate(-90)"/>
    <rect class="cls-1" x="295.04" y="142.42" width="17.88" height="17.88" transform="translate(152.62 455.35) rotate(-90)"/>
    <rect class="cls-1" x="295.04" y="106.65" width="17.88" height="17.88" transform="translate(188.39 419.58) rotate(-90)"/>
    <rect class="cls-1" x="295.04" y="88.77" width="17.88" height="17.88" transform="translate(206.27 401.7) rotate(-90)"/>
    <rect class="cls-1" x="295.04" y="124.54" width="17.88" height="17.88" transform="translate(170.5 437.47) rotate(-90)"/>
    <rect class="cls-1" x="223.5" y="214.96" width="17.88" height="17.88" transform="translate(8.54 456.35) rotate(-90)"/>
  </g>
</svg>