<?xml version="1.0" encoding="UTF-8"?>
<svg id="Livello_1" data-name="Livello 1" xmlns="http://www.w3.org/2000/svg" viewBox="0 0 500 500">
  <defs>
    <style>
      .cls-1 {
        stroke: #000;
      }

      .cls-1, .cls-2 {
        stroke-miterlimit: 10;
      }

      .cls-2 {
        fill: #f5cca3;
        stroke: #f5cca3;
      }
    </style>
  </defs>
  <g>
    <rect class="cls-2" x="80" y="260.8" width="20" height="20"/>
    <rect class="cls-2" x="380" y="220.8" width="20" height="20"/>
    <rect class="cls-2" x="400" y="240.8" width="20" height="20"/>
    <rect class="cls-2" x="380" y="240.8" width="20" height="20"/>
    <rect class="cls-2" x="400" y="260.8" width="20" height="20"/>
    <rect class="cls-2" x="380" y="260.8" width="20" height="20"/>
    <rect class="cls-2" x="400" y="280" width="20" height="20"/>
    <rect class="cls-2" x="380" y="280" width="20" height="20"/>
    <rect class="cls-2" x="400" y="300" width="20" height="20"/>
    <rect class="cls-2" x="380" y="300" width="20" height="20"/>
    <rect class="cls-2" x="400" y="320" width="20" height="20"/>
    <rect class="cls-2" x="380" y="320" width="20" height="20"/>
    <rect class="cls-2" x="400" y="340" width="20" height="20"/>
    <rect class="cls-2" x="380" y="340" width="20" height="20"/>
    <rect class="cls-2" x="400" y="360" width="20" height="20"/>
    <rect class="cls-2" x="380" y="360" width="20" height="20"/>
    <rect class="cls-2" x="400" y="380" width="20" height="20"/>
    <rect class="cls-2" x="380" y="380" width="20" height="20"/>
    <rect class="cls-2" x="400" y="400" width="20" height="20"/>
    <rect class="cls-2" x="380" y="400" width="20" height="20"/>
    <rect class="cls-2" x="400" y="420" width="20" height="20"/>
    <rect class="cls-2" x="380" y="420" width="20" height="20"/>
    <rect class="cls-2" x="380" y="420" width="20" height="20"/>
    <rect class="cls-2" x="360" y="420" width="20" height="20"/>
    <rect class="cls-2" x="380" y="440" width="20" height="20"/>
    <rect class="cls-2" x="360" y="440" width="20" height="20"/>
    <rect class="cls-2" x="360" y="440" width="20" height="20"/>
    <rect class="cls-2" x="340" y="440" width="20" height="20"/>
    <rect class="cls-2" x="360" y="460" width="20" height="20"/>
    <rect class="cls-2" x="340" y="460" width="20" height="20"/>
    <rect class="cls-2" x="360" y="400" width="20" height="20"/>
    <rect class="cls-2" x="340" y="400" width="20" height="20"/>
    <rect class="cls-2" x="360" y="420" width="20" height="20"/>
    <rect class="cls-2" x="340" y="420" width="20" height="20"/>
    <rect class="cls-2" x="320" y="440" width="20" height="20"/>
    <rect class="cls-2" x="300" y="440" width="20" height="20"/>
    <rect class="cls-2" x="320" y="460" width="20" height="20"/>
    <rect class="cls-2" x="300" y="460" width="20" height="20"/>
    <rect class="cls-2" x="280" y="440" width="20" height="20"/>
    <rect class="cls-2" x="260" y="440" width="20" height="20"/>
    <rect class="cls-2" x="280" y="460" width="20" height="20"/>
    <rect class="cls-2" x="260" y="460" width="20" height="20"/>
    <rect class="cls-2" x="240" y="440" width="20" height="20"/>
    <rect class="cls-2" x="220" y="440" width="20" height="20"/>
    <rect class="cls-2" x="240" y="460" width="20" height="20"/>
    <rect class="cls-2" x="220" y="460" width="20" height="20"/>
    <rect class="cls-2" x="220" y="440" width="20" height="20"/>
    <rect class="cls-2" x="200" y="440" width="20" height="20"/>
    <rect class="cls-2" x="220" y="460" width="20" height="20"/>
    <rect class="cls-2" x="200" y="460" width="20" height="20"/>
    <rect class="cls-2" x="180" y="420" width="20" height="20"/>
    <rect class="cls-2" x="160" y="420" width="20" height="20"/>
    <rect class="cls-2" x="180" y="440" width="20" height="20"/>
    <rect class="cls-2" x="160" y="440" width="20" height="20"/>
    <rect class="cls-2" x="220" y="400" width="20" height="20"/>
    <rect class="cls-2" x="200" y="400" width="20" height="20"/>
    <rect class="cls-2" x="220" y="420" width="20" height="20"/>
    <rect class="cls-2" x="200" y="420" width="20" height="20"/>
    <rect class="cls-2" x="180" y="380" width="20" height="20"/>
    <rect class="cls-2" x="160" y="380" width="20" height="20"/>
    <rect class="cls-2" x="180" y="400" width="20" height="20"/>
    <rect class="cls-2" x="160" y="400" width="20" height="20"/>
    <rect class="cls-2" x="160" y="400" width="20" height="20"/>
    <rect class="cls-2" x="140" y="400" width="20" height="20"/>
    <rect class="cls-2" x="160" y="420" width="20" height="20"/>
    <rect class="cls-2" x="140" y="420" width="20" height="20"/>
    <rect class="cls-2" x="260" y="400" width="20" height="20"/>
    <rect class="cls-2" x="240" y="400" width="20" height="20"/>
    <rect class="cls-2" x="260" y="420" width="20" height="20"/>
    <rect class="cls-2" x="240" y="420" width="20" height="20"/>
    <rect class="cls-2" x="300" y="400" width="20" height="20"/>
    <rect class="cls-2" x="280" y="400" width="20" height="20"/>
    <rect class="cls-2" x="300" y="420" width="20" height="20"/>
    <rect class="cls-2" x="280" y="420" width="20" height="20"/>
    <rect class="cls-2" x="336.16" y="400" width="20" height="20"/>
    <rect class="cls-2" x="316.16" y="400" width="20" height="20"/>
    <rect class="cls-2" x="336.16" y="420" width="20" height="20"/>
    <rect class="cls-2" x="316.16" y="420" width="20" height="20"/>
    <rect class="cls-2" x="140" y="360" width="20" height="20"/>
    <rect class="cls-2" x="120" y="360" width="20" height="20"/>
    <rect class="cls-2" x="140" y="380" width="20" height="20"/>
    <rect class="cls-2" x="120" y="380" width="20" height="20"/>
    <rect class="cls-2" x="180" y="340" width="20" height="20"/>
    <rect class="cls-2" x="160" y="340" width="20" height="20"/>
    <rect class="cls-2" x="180" y="360" width="20" height="20"/>
    <rect class="cls-2" x="160" y="360" width="20" height="20"/>
    <rect class="cls-2" x="100" y="280" width="20" height="20"/>
    <rect class="cls-2" x="80" y="280" width="20" height="20"/>
    <rect class="cls-2" x="100" y="300" width="20" height="20"/>
    <rect class="cls-2" x="80" y="300" width="20" height="20"/>
    <rect class="cls-2" x="120" y="320" width="20" height="20"/>
    <rect class="cls-2" x="100" y="320" width="20" height="20"/>
    <rect class="cls-2" x="120" y="340" width="20" height="20"/>
    <rect class="cls-2" x="100" y="340" width="20" height="20"/>
    <rect class="cls-2" x="156.81" y="320" width="20" height="20"/>
    <rect class="cls-2" x="136.81" y="320" width="20" height="20"/>
    <rect class="cls-2" x="156.81" y="340" width="20" height="20"/>
    <rect class="cls-2" x="136.81" y="340" width="20" height="20"/>
    <rect class="cls-2" x="120" y="240.8" width="20" height="20"/>
    <rect class="cls-2" x="100" y="240.8" width="20" height="20"/>
    <rect class="cls-2" x="120" y="260.8" width="20" height="20"/>
    <rect class="cls-2" x="100" y="260.8" width="20" height="20"/>
    <rect class="cls-2" x="160" y="200" width="20" height="20"/>
    <rect class="cls-2" x="140" y="200" width="20" height="20"/>
    <rect class="cls-2" x="160" y="220" width="20" height="20"/>
    <rect class="cls-2" x="140" y="220" width="20" height="20"/>
    <rect class="cls-2" x="340" y="180" width="20" height="20"/>
    <rect class="cls-2" x="320" y="180" width="20" height="20"/>
    <rect class="cls-2" x="340" y="200" width="20" height="20"/>
    <rect class="cls-2" x="320" y="200" width="20" height="20"/>
    <rect class="cls-2" x="320" y="160" width="20" height="20"/>
    <rect class="cls-2" x="300" y="160" width="20" height="20"/>
    <rect class="cls-2" x="320" y="180" width="20" height="20"/>
    <rect class="cls-2" x="300" y="180" width="20" height="20"/>
    <rect class="cls-2" x="320" y="40" width="20" height="20"/>
    <rect class="cls-2" x="300" y="40" width="20" height="20"/>
    <rect class="cls-2" x="320" y="60" width="20" height="20"/>
    <rect class="cls-2" x="300" y="60" width="20" height="20"/>
    <rect class="cls-2" x="320" y="20" width="20" height="20"/>
    <rect class="cls-2" x="300" y="20" width="20" height="20"/>
    <rect class="cls-2" x="320" y="40" width="20" height="20"/>
    <rect class="cls-2" x="300" y="40" width="20" height="20"/>
    <rect class="cls-2" x="300" y="20" width="20" height="20"/>
    <rect class="cls-2" x="280" y="20" width="20" height="20"/>
    <rect class="cls-2" x="300" y="40" width="20" height="20"/>
    <rect class="cls-2" x="280" y="40" width="20" height="20"/>
    <rect class="cls-2" x="300" y="80" width="20" height="20"/>
    <rect class="cls-2" x="280" y="80" width="20" height="20"/>
    <rect class="cls-2" x="300" y="100" width="20" height="20"/>
    <rect class="cls-2" x="280" y="100" width="20" height="20"/>
    <rect class="cls-2" x="300" y="50" width="20" height="20"/>
    <rect class="cls-2" x="280" y="50" width="20" height="20"/>
    <rect class="cls-2" x="300" y="70" width="20" height="20"/>
    <rect class="cls-2" x="280" y="70" width="20" height="20"/>
    <rect class="cls-2" x="280" y="80" width="20" height="20"/>
    <rect class="cls-2" x="260" y="80" width="20" height="20"/>
    <rect class="cls-2" x="280" y="100" width="20" height="20"/>
    <rect class="cls-2" x="260" y="100" width="20" height="20"/>
    <rect class="cls-2" x="120" y="20" width="20" height="20"/>
    <rect class="cls-2" x="100" y="20" width="20" height="20"/>
    <rect class="cls-2" x="120" y="40" width="20" height="20"/>
    <rect class="cls-2" x="100" y="40" width="20" height="20"/>
    <rect class="cls-2" x="120" y="60" width="20" height="20"/>
    <rect class="cls-2" x="100" y="60" width="20" height="20"/>
    <rect class="cls-2" x="120" y="80" width="20" height="20"/>
    <rect class="cls-2" x="100" y="80" width="20" height="20"/>
    <rect class="cls-2" x="140" y="60" width="20" height="20"/>
    <rect class="cls-2" x="120" y="60" width="20" height="20"/>
    <rect class="cls-2" x="140" y="80" width="20" height="20"/>
    <rect class="cls-2" x="120" y="80" width="20" height="20"/>
    <rect class="cls-2" x="140" y="98.74" width="20" height="20"/>
    <rect class="cls-2" x="120" y="98.74" width="20" height="20"/>
    <rect class="cls-2" x="140" y="118.74" width="20" height="20"/>
    <rect class="cls-2" x="120" y="118.74" width="20" height="20"/>
    <rect class="cls-2" x="160" y="120" width="20" height="20"/>
    <rect class="cls-2" x="140" y="120" width="20" height="20"/>
    <rect class="cls-2" x="160" y="140" width="20" height="20"/>
    <rect class="cls-2" x="140" y="140" width="20" height="20"/>
    <rect class="cls-2" x="140" y="120" width="20" height="20"/>
    <rect class="cls-2" x="120" y="120" width="20" height="20"/>
    <rect class="cls-2" x="140" y="140" width="20" height="20"/>
    <rect class="cls-2" x="120" y="140" width="20" height="20"/>
    <rect class="cls-2" x="160" y="159.37" width="20" height="20"/>
    <rect class="cls-2" x="140" y="159.37" width="20" height="20"/>
    <rect class="cls-2" x="160" y="179.37" width="20" height="20"/>
    <rect class="cls-2" x="140" y="179.37" width="20" height="20"/>
    <rect class="cls-2" x="260" y="120" width="20" height="20"/>
    <rect class="cls-2" x="240" y="120" width="20" height="20"/>
    <rect class="cls-2" x="260" y="140" width="20" height="20"/>
    <rect class="cls-2" x="240" y="140" width="20" height="20"/>
    <rect class="cls-2" x="260" y="160" width="20" height="20"/>
    <rect class="cls-2" x="240" y="160" width="20" height="20"/>
    <rect class="cls-2" x="260" y="180" width="20" height="20"/>
    <rect class="cls-2" x="240" y="180" width="20" height="20"/>
    <rect class="cls-2" x="240" y="179.37" width="20" height="20"/>
    <rect class="cls-2" x="220" y="179.37" width="20" height="20"/>
    <rect class="cls-2" x="240" y="199.37" width="20" height="20"/>
    <rect class="cls-2" x="220" y="199.37" width="20" height="20"/>
    <rect class="cls-2" x="180" y="180" width="20" height="20"/>
    <rect class="cls-2" x="160" y="180" width="20" height="20"/>
    <rect class="cls-2" x="180" y="200" width="20" height="20"/>
    <rect class="cls-2" x="160" y="200" width="20" height="20"/>
    <rect class="cls-2" x="210" y="200.8" width="20" height="20"/>
    <rect class="cls-2" x="190" y="200.8" width="20" height="20"/>
    <rect class="cls-2" x="210" y="220.8" width="20" height="20"/>
    <rect class="cls-2" x="190" y="220.8" width="20" height="20"/>
    <rect class="cls-2" x="300" y="233.32" width="80" height="83.34"/>
    <rect class="cls-2" x="220" y="233.32" width="80" height="83.34"/>
    <rect class="cls-2" x="300" y="316.66" width="80" height="83.34"/>
    <rect class="cls-2" x="220" y="316.66" width="80" height="83.34"/>
    <rect class="cls-2" x="290" y="120" width="20" height="20"/>
    <rect class="cls-2" x="270" y="120" width="20" height="20"/>
    <rect class="cls-2" x="290" y="140" width="20" height="20"/>
    <rect class="cls-2" x="270" y="140" width="20" height="20"/>
    <rect class="cls-2" x="310" y="185.18" width="50.96" height="45.62"/>
    <rect class="cls-2" x="259.04" y="185.18" width="50.96" height="45.62"/>
    <rect class="cls-2" x="310" y="230.8" width="50.96" height="45.62"/>
    <rect class="cls-2" x="259.04" y="230.8" width="50.96" height="45.62"/>
    <rect class="cls-2" x="288.08" y="155.4" width="20" height="20"/>
    <rect class="cls-2" x="268.08" y="155.4" width="20" height="20"/>
    <rect class="cls-2" x="288.08" y="175.4" width="20" height="20"/>
    <rect class="cls-2" x="268.08" y="175.4" width="20" height="20"/>
    <rect class="cls-2" x="188.34" y="240.8" width="68.34" height="82.78"/>
    <rect class="cls-2" x="120" y="240.8" width="68.34" height="82.78"/>
    <rect class="cls-2" x="188.34" y="323.58" width="68.34" height="82.78"/>
    <rect class="cls-2" x="120" y="323.58" width="68.34" height="82.78"/>
  </g>
  <g>
    <rect class="cls-1" x="120" y="200" width="20" height="20"/>
    <rect class="cls-1" x="100" y="220" width="20" height="20"/>
    <rect class="cls-1" x="80" y="240" width="20" height="20"/>
    <rect class="cls-1" x="60" y="260" width="20" height="20"/>
    <rect class="cls-1" x="60" y="280" width="20" height="20"/>
    <rect class="cls-1" x="60" y="300" width="20" height="20"/>
    <rect class="cls-1" x="80" y="320" width="20" height="20"/>
    <rect class="cls-1" x="80" y="340" width="20" height="20"/>
    <rect class="cls-1" x="100" y="360" width="20" height="20"/>
    <rect class="cls-1" x="100" y="380" width="20" height="20"/>
    <rect class="cls-1" x="120" y="400" width="20" height="20"/>
    <rect class="cls-1" x="120" y="420" width="20" height="20"/>
    <rect class="cls-1" x="140" y="440" width="20" height="20"/>
    <rect class="cls-1" x="160" y="460" width="20" height="20"/>
    <rect class="cls-1" x="180" y="460" width="20" height="20"/>
    <rect class="cls-1" x="200" y="480" width="20" height="20"/>
    <rect class="cls-1" x="220" y="480" width="20" height="20"/>
    <rect class="cls-1" x="240" y="480" width="20" height="20"/>
    <rect class="cls-1" x="260" y="480" width="20" height="20"/>
    <rect class="cls-1" x="280" y="480" width="20" height="20"/>
    <rect class="cls-1" x="300" y="480" width="20" height="20"/>
    <rect class="cls-1" x="320" y="480" width="20" height="20"/>
    <rect class="cls-1" x="340" y="480" width="20" height="20"/>
    <rect class="cls-1" x="360" y="480" width="20" height="20"/>
    <rect class="cls-1" x="380" y="460" width="20" height="20"/>
    <rect class="cls-1" x="400" y="440" width="20" height="20"/>
    <rect class="cls-1" x="420" y="420" width="20" height="20"/>
    <rect class="cls-1" x="420" y="400" width="20" height="20"/>
    <rect class="cls-1" x="420" y="380" width="20" height="20"/>
    <rect class="cls-1" x="420" y="360" width="20" height="20"/>
    <rect class="cls-1" x="420" y="340" width="20" height="20"/>
    <rect class="cls-1" x="420" y="320" width="20" height="20"/>
    <rect class="cls-1" x="420" y="300" width="20" height="20"/>
    <rect class="cls-1" x="420" y="280" width="20" height="20"/>
    <rect class="cls-1" x="420" y="260" width="20" height="20"/>
    <rect class="cls-1" x="420" y="240" width="20" height="20"/>
    <rect class="cls-1" x="400" y="220" width="20" height="20"/>
    <rect class="cls-1" x="380" y="200" width="20" height="20"/>
    <rect class="cls-1" x="360" y="200" width="20" height="20"/>
    <rect class="cls-1" x="360" y="180" width="20" height="20"/>
    <rect class="cls-1" x="340" y="160" width="20" height="20"/>
    <rect class="cls-1" x="320" y="140" width="20" height="20"/>
    <rect class="cls-1" x="300" y="140" width="20" height="20"/>
    <rect class="cls-1" x="300" y="160" width="20" height="20"/>
    <rect class="cls-1" x="300" y="180" width="20" height="20"/>
    <rect class="cls-1" x="300" y="120" width="20" height="20"/>
    <rect class="cls-1" x="320" y="100" width="20" height="20"/>
    <rect class="cls-1" x="320" y="80" width="20" height="20"/>
    <rect class="cls-1" x="340" y="60" width="20" height="20"/>
    <rect class="cls-1" x="340" y="40" width="20" height="20"/>
    <rect class="cls-1" x="340" y="20" width="20" height="20"/>
    <rect class="cls-1" x="320" width="20" height="20"/>
    <rect class="cls-1" x="300" width="20" height="20"/>
    <rect class="cls-1" x="280" width="20" height="20"/>
    <rect class="cls-1" x="260" y="20" width="20" height="20"/>
    <rect class="cls-1" x="260" y="40" width="20" height="20"/>
    <rect class="cls-1" x="260" y="60" width="20" height="20"/>
    <rect class="cls-1" x="240" y="80" width="20" height="20"/>
    <rect class="cls-1" x="240" y="100" width="20" height="20"/>
    <rect class="cls-1" x="220" y="120" width="20" height="20"/>
    <rect class="cls-1" x="220" y="140" width="20" height="20"/>
    <rect class="cls-1" x="220" y="160" width="20" height="20"/>
    <rect class="cls-1" x="200" y="180" width="20" height="20"/>
    <rect class="cls-1" x="180" y="160" width="20" height="20"/>
    <rect class="cls-1" x="180" y="140" width="20" height="20"/>
    <rect class="cls-1" x="180" y="120" width="20" height="20"/>
    <rect class="cls-1" x="160" y="100" width="20" height="20"/>
    <rect class="cls-1" x="160" y="80" width="20" height="20"/>
    <rect class="cls-1" x="160" y="60" width="20" height="20"/>
    <rect class="cls-1" x="140" y="40" width="20" height="20"/>
    <rect class="cls-1" x="140" y="20" width="20" height="20"/>
    <rect class="cls-1" x="120" width="20" height="20"/>
    <rect class="cls-1" x="100" width="20" height="20"/>
    <rect class="cls-1" x="80" y="20" width="20" height="20"/>
    <rect class="cls-1" x="80" y="40" width="20" height="20"/>
    <rect class="cls-1" x="80" y="60" width="20" height="20"/>
    <rect class="cls-1" x="80" y="80" width="20" height="20"/>
    <rect class="cls-1" x="100" y="100" width="20" height="20"/>
    <rect class="cls-1" x="100" y="120" width="20" height="20"/>
    <rect class="cls-1" x="100" y="140" width="20" height="20"/>
    <rect class="cls-1" x="120" y="160" width="20" height="20"/>
    <rect class="cls-1" x="120" y="180" width="20" height="20"/>
    <rect class="cls-1" x="280" y="200" width="20" height="20"/>
    <rect class="cls-1" x="280" y="220" width="20" height="20"/>
    <rect class="cls-1" x="260" y="235.79" width="20" height="20"/>
    <rect class="cls-1" x="260" y="255.79" width="20" height="20"/>
    <rect class="cls-1" x="240" y="275.79" width="20" height="20"/>
    <rect class="cls-1" x="280" y="275.79" width="20" height="20"/>
    <rect class="cls-1" x="300" y="275.79" width="20" height="20"/>
    <rect class="cls-1" x="320" y="295.79" width="20" height="20"/>
    <rect class="cls-1" x="320" y="315.79" width="20" height="20"/>
    <rect class="cls-1" x="340" y="280" width="20" height="20"/>
    <rect class="cls-1" x="340" y="260.8" width="20" height="20"/>
    <rect class="cls-1" x="360" y="240.8" width="20" height="20"/>
    <rect class="cls-1" x="360" y="220" width="20" height="20"/>
    <rect class="cls-1" x="340" y="335.79" width="20" height="20"/>
    <rect class="cls-1" x="360" y="335.79" width="20" height="20"/>
    <rect class="cls-1" x="378.17" y="315.79" width="20" height="20"/>
    <rect class="cls-1" x="220" y="295.79" width="20" height="20"/>
    <rect class="cls-1" x="200" y="295.79" width="20" height="20"/>
    <rect class="cls-1" x="180" y="295.79" width="20" height="20"/>
    <rect class="cls-1" x="160" y="275.79" width="20" height="20"/>
    <rect class="cls-1" x="160" y="315.79" width="20" height="20"/>
    <rect class="cls-1" x="140" y="335.79" width="20" height="20"/>
    <rect class="cls-1" x="140" y="220" width="20" height="20"/>
    <rect class="cls-1" x="160" y="220" width="20" height="20"/>
    <rect class="cls-1" x="180" y="220" width="20" height="20"/>
    <rect class="cls-1" x="200" y="220" width="20" height="20"/>
    <rect class="cls-1" x="220" y="220" width="20" height="20"/>
    <rect class="cls-1" x="240" y="220" width="20" height="20"/>
    <rect class="cls-1" x="120" y="220" width="20" height="20"/>
  </g>
</svg>