<?xml version="1.0" encoding="UTF-8"?>
<svg id="Livello_1" data-name="Livello 1" xmlns="http://www.w3.org/2000/svg" viewBox="0 0 500 500">
  <defs>
    <style>
      .cls-1 {
        stroke: #000;
      }

      .cls-1, .cls-2 {
        stroke-miterlimit: 10;
      }

      .cls-2 {
        fill: #f5cca3;
        stroke: #f5cca3;
      }
    </style>
  </defs>
  <g>
    <rect class="cls-2" x="350" y="424.83" width="25" height="25.06"/>
    <rect class="cls-2" x="325" y="424.83" width="25" height="25.06"/>
    <rect class="cls-2" x="400" y="424.83" width="25" height="25.06"/>
    <rect class="cls-2" x="375" y="424.83" width="25" height="25.06"/>
    <rect class="cls-2" x="350" y="449.89" width="25" height="25.06"/>
    <rect class="cls-2" x="325" y="449.89" width="25" height="25.06"/>
    <rect class="cls-2" x="400" y="449.89" width="25" height="25.06"/>
    <rect class="cls-2" x="375" y="449.89" width="25" height="25.06"/>
    <rect class="cls-2" x="350" y="374.72" width="25" height="25.06"/>
    <rect class="cls-2" x="325" y="374.72" width="25" height="25.06"/>
    <rect class="cls-2" x="400" y="374.72" width="25" height="25.06"/>
    <rect class="cls-2" x="375" y="374.72" width="25" height="25.06"/>
    <rect class="cls-2" x="350" y="399.78" width="25" height="25.06"/>
    <rect class="cls-2" x="325" y="399.78" width="25" height="25.06"/>
    <rect class="cls-2" x="400" y="399.78" width="25" height="25.06"/>
    <rect class="cls-2" x="375" y="399.78" width="25" height="25.06"/>
    <rect class="cls-2" x="350" y="324.61" width="25" height="25.06"/>
    <rect class="cls-2" x="325" y="324.61" width="25" height="25.06"/>
    <rect class="cls-2" x="400" y="324.61" width="25" height="25.06"/>
    <rect class="cls-2" x="375" y="324.61" width="25" height="25.06"/>
    <rect class="cls-2" x="350" y="349.67" width="25" height="25.06"/>
    <rect class="cls-2" x="325" y="349.67" width="25" height="25.06"/>
    <rect class="cls-2" x="400" y="349.67" width="25" height="25.06"/>
    <rect class="cls-2" x="375" y="349.67" width="25" height="25.06"/>
    <rect class="cls-2" x="250" y="324.61" width="25" height="25.06"/>
    <rect class="cls-2" x="225" y="324.61" width="25" height="25.06"/>
    <rect class="cls-2" x="300" y="324.61" width="25" height="25.06"/>
    <rect class="cls-2" x="275" y="324.61" width="25" height="25.06"/>
    <rect class="cls-2" x="250" y="349.67" width="25" height="25.06"/>
    <rect class="cls-2" x="225" y="349.67" width="25" height="25.06"/>
    <rect class="cls-2" x="300" y="349.67" width="25" height="25.06"/>
    <rect class="cls-2" x="275" y="349.67" width="25" height="25.06"/>
    <rect class="cls-2" x="250" y="374.72" width="25" height="25.06"/>
    <rect class="cls-2" x="225" y="374.72" width="25" height="25.06"/>
    <rect class="cls-2" x="300" y="374.72" width="25" height="25.06"/>
    <rect class="cls-2" x="275" y="374.72" width="25" height="25.06"/>
    <rect class="cls-2" x="250" y="399.78" width="25" height="25.06"/>
    <rect class="cls-2" x="225" y="399.78" width="25" height="25.06"/>
    <rect class="cls-2" x="300" y="399.78" width="25" height="25.06"/>
    <rect class="cls-2" x="275" y="399.78" width="25" height="25.06"/>
    <rect class="cls-2" x="250" y="424.83" width="25" height="25.06"/>
    <rect class="cls-2" x="225" y="424.83" width="25" height="25.06"/>
    <rect class="cls-2" x="300" y="424.83" width="25" height="25.06"/>
    <rect class="cls-2" x="275" y="424.83" width="25" height="25.06"/>
    <rect class="cls-2" x="250" y="449.89" width="25" height="25.06"/>
    <rect class="cls-2" x="225" y="449.89" width="25" height="25.06"/>
    <rect class="cls-2" x="300" y="449.89" width="25" height="25.06"/>
    <rect class="cls-2" x="275" y="449.89" width="25" height="25.06"/>
    <rect class="cls-2" x="325" y="275.33" width="25" height="25.06"/>
    <rect class="cls-2" x="400" y="275.33" width="25" height="25.06"/>
    <rect class="cls-2" x="350" y="300.39" width="25" height="25.06"/>
    <rect class="cls-2" x="325" y="300.39" width="25" height="25.06"/>
    <rect class="cls-2" x="400" y="300.39" width="25" height="25.06"/>
    <rect class="cls-2" x="375" y="300.39" width="25" height="25.06"/>
    <rect class="cls-2" x="350" y="225.22" width="25" height="25.06"/>
    <rect class="cls-2" x="400" y="225.22" width="25" height="25.06"/>
    <rect class="cls-2" x="375" y="225.22" width="25" height="25.06"/>
    <rect class="cls-2" x="350" y="250.28" width="25" height="25.06"/>
    <rect class="cls-2" x="375" y="250.28" width="25" height="25.06"/>
    <rect class="cls-2" x="325" y="175.11" width="25" height="25.06"/>
    <rect class="cls-2" x="400" y="175.11" width="25" height="25.06"/>
    <rect class="cls-2" x="375" y="175.11" width="25" height="25.06"/>
    <rect class="cls-2" x="325" y="200.17" width="25" height="25.06"/>
    <rect class="cls-2" x="400" y="200.17" width="25" height="25.06"/>
    <rect class="cls-2" x="375" y="200.17" width="25" height="25.06"/>
    <rect class="cls-2" x="225" y="175.11" width="25" height="25.06"/>
    <rect class="cls-2" x="300" y="175.11" width="25" height="25.06"/>
    <rect class="cls-2" x="275" y="175.11" width="25" height="25.06"/>
    <rect class="cls-2" x="250" y="200.17" width="25" height="25.06"/>
    <rect class="cls-2" x="250" y="225.22" width="25" height="25.06"/>
    <rect class="cls-2" x="225" y="225.22" width="25" height="25.06"/>
    <rect class="cls-2" x="300" y="225.22" width="25" height="25.06"/>
    <rect class="cls-2" x="275" y="225.22" width="25" height="25.06"/>
    <rect class="cls-2" x="250" y="250.28" width="25" height="25.06"/>
    <rect class="cls-2" x="225" y="250.28" width="25" height="25.06"/>
    <rect class="cls-2" x="300" y="250.28" width="25" height="25.06"/>
    <rect class="cls-2" x="275" y="250.28" width="25" height="25.06"/>
    <rect class="cls-2" x="250" y="275.33" width="25" height="25.06"/>
    <rect class="cls-2" x="225" y="275.33" width="25" height="25.06"/>
    <rect class="cls-2" x="300" y="275.33" width="25" height="25.06"/>
    <rect class="cls-2" x="275" y="275.33" width="25" height="25.06"/>
    <rect class="cls-2" x="250" y="300.39" width="25" height="25.06"/>
    <rect class="cls-2" x="225" y="300.39" width="25" height="25.06"/>
    <rect class="cls-2" x="300" y="300.39" width="25" height="25.06"/>
    <rect class="cls-2" x="275" y="300.39" width="25" height="25.06"/>
    <rect class="cls-2" x="150" y="424.83" width="25" height="25.06"/>
    <rect class="cls-2" x="125" y="424.83" width="25" height="25.06"/>
    <rect class="cls-2" x="200" y="424.83" width="25" height="25.06"/>
    <rect class="cls-2" x="175" y="424.83" width="25" height="25.06"/>
    <rect class="cls-2" x="200" y="449.89" width="25" height="25.06"/>
    <rect class="cls-2" x="175" y="449.89" width="25" height="25.06"/>
    <rect class="cls-2" x="150" y="374.72" width="25" height="25.06"/>
    <rect class="cls-2" x="125" y="374.72" width="25" height="25.06"/>
    <rect class="cls-2" x="200" y="374.72" width="25" height="25.06"/>
    <rect class="cls-2" x="175" y="374.72" width="25" height="25.06"/>
    <rect class="cls-2" x="150" y="399.78" width="25" height="25.06"/>
    <rect class="cls-2" x="125" y="399.78" width="25" height="25.06"/>
    <rect class="cls-2" x="200" y="399.78" width="25" height="25.06"/>
    <rect class="cls-2" x="175" y="399.78" width="25" height="25.06"/>
    <rect class="cls-2" x="150" y="324.61" width="25" height="25.06"/>
    <rect class="cls-2" x="125" y="324.61" width="25" height="25.06"/>
    <rect class="cls-2" x="200" y="324.61" width="25" height="25.06"/>
    <rect class="cls-2" x="175" y="324.61" width="25" height="25.06"/>
    <rect class="cls-2" x="150" y="349.67" width="25" height="25.06"/>
    <rect class="cls-2" x="125" y="349.67" width="25" height="25.06"/>
    <rect class="cls-2" x="200" y="349.67" width="25" height="25.06"/>
    <rect class="cls-2" x="175" y="349.67" width="25" height="25.06"/>
    <rect class="cls-2" x="100" y="324.61" width="25" height="25.06"/>
    <rect class="cls-2" x="75" y="324.61" width="25" height="25.06"/>
    <rect class="cls-2" x="100" y="349.67" width="25" height="25.06"/>
    <rect class="cls-2" x="75" y="349.67" width="25" height="25.06"/>
    <rect class="cls-2" x="100" y="374.72" width="25" height="25.06"/>
    <rect class="cls-2" x="100" y="399.78" width="25" height="25.06"/>
    <rect class="cls-2" x="150" y="275.33" width="25" height="25.06"/>
    <rect class="cls-2" x="125" y="275.33" width="25" height="25.06"/>
    <rect class="cls-2" x="200" y="275.33" width="25" height="25.06"/>
    <rect class="cls-2" x="175" y="275.33" width="25" height="25.06"/>
    <rect class="cls-2" x="150" y="300.39" width="25" height="25.06"/>
    <rect class="cls-2" x="125" y="300.39" width="25" height="25.06"/>
    <rect class="cls-2" x="200" y="300.39" width="25" height="25.06"/>
    <rect class="cls-2" x="175" y="300.39" width="25" height="25.06"/>
    <rect class="cls-2" x="150" y="250.28" width="25" height="25.06"/>
    <rect class="cls-2" x="125" y="250.28" width="25" height="25.06"/>
    <rect class="cls-2" x="200" y="250.28" width="25" height="25.06"/>
    <rect class="cls-2" x="175" y="250.28" width="25" height="25.06"/>
    <rect class="cls-2" x="150" y="175.11" width="25" height="25.06"/>
    <rect class="cls-2" x="125" y="175.11" width="25" height="25.06"/>
    <rect class="cls-2" x="200" y="175.11" width="25" height="25.06"/>
    <rect class="cls-2" x="175" y="175.11" width="25" height="25.06"/>
    <rect class="cls-2" x="150" y="200.17" width="25" height="25.06"/>
    <rect class="cls-2" x="125" y="200.17" width="25" height="25.06"/>
    <rect class="cls-2" x="200" y="200.17" width="25" height="25.06"/>
    <rect class="cls-2" x="175" y="200.17" width="25" height="25.06"/>
    <rect class="cls-2" x="50" y="175.11" width="25" height="25.06"/>
    <rect class="cls-2" x="100" y="175.11" width="25" height="25.06"/>
    <rect class="cls-2" x="75" y="175.11" width="25" height="25.06"/>
    <rect class="cls-2" x="50" y="200.17" width="25" height="25.06"/>
    <rect class="cls-2" x="25" y="200.17" width="25" height="25.06"/>
    <rect class="cls-2" x="75" y="200.17" width="25" height="25.06"/>
    <rect class="cls-2" x="50" y="225.22" width="25" height="25.06"/>
    <rect class="cls-2" x="25" y="225.22" width="25" height="25.06"/>
    <rect class="cls-2" x="100" y="225.22" width="25" height="25.06"/>
    <rect class="cls-2" x="75" y="225.22" width="25" height="25.06"/>
    <rect class="cls-2" x="50" y="250.28" width="25" height="25.06"/>
    <rect class="cls-2" x="25" y="250.28" width="25" height="25.06"/>
    <rect class="cls-2" x="75" y="250.28" width="25" height="25.06"/>
    <rect class="cls-2" x="50" y="275.33" width="25" height="25.06"/>
    <rect class="cls-2" x="100" y="275.33" width="25" height="25.06"/>
    <rect class="cls-2" x="50" y="300.39" width="25" height="25.06"/>
    <rect class="cls-2" x="100" y="300.39" width="25" height="25.06"/>
    <rect class="cls-2" x="75" y="300.39" width="25" height="25.06"/>
    <rect class="cls-2" x="175" y="150.33" width="25" height="25.06"/>
    <rect class="cls-2" x="150" y="150.33" width="25" height="25.06"/>
    <rect class="cls-2" x="225" y="150.33" width="25" height="25.06"/>
    <rect class="cls-2" x="200" y="150.33" width="25" height="25.06"/>
    <rect class="cls-2" x="175" y="75.17" width="25" height="25.06"/>
    <rect class="cls-2" x="150" y="75.17" width="25" height="25.06"/>
    <rect class="cls-2" x="225" y="75.17" width="25" height="25.06"/>
    <rect class="cls-2" x="175" y="100.22" width="25" height="25.06"/>
    <rect class="cls-2" x="150" y="100.22" width="25" height="25.06"/>
    <rect class="cls-2" x="225" y="100.22" width="25" height="25.06"/>
    <rect class="cls-2" x="175" y="25.06" width="25" height="25.06"/>
    <rect class="cls-2" x="150" y="25.06" width="25" height="25.06"/>
    <rect class="cls-2" x="200" y="25.06" width="25" height="25.06"/>
    <rect class="cls-2" x="175" y="50.11" width="25" height="25.06"/>
    <rect class="cls-2" x="150" y="50.11" width="25" height="25.06"/>
    <rect class="cls-2" x="225" y="50.11" width="25" height="25.06"/>
    <rect class="cls-2" x="125" y="50.11" width="25" height="25.06"/>
    <rect class="cls-2" x="125" y="75.17" width="25" height="25.06"/>
    <rect class="cls-2" x="125" y="100.22" width="25" height="25.06"/>
    <rect class="cls-2" x="75" y="150.33" width="25" height="25.06"/>
    <rect class="cls-2" x="125" y="150.33" width="25" height="25.06"/>
    <rect class="cls-2" x="100" y="150.33" width="25" height="25.06"/>
    <rect class="cls-2" x="350" y="125.28" width="25" height="25.06"/>
    <rect class="cls-2" x="425" y="125.28" width="25" height="25.06"/>
    <rect class="cls-2" x="400" y="125.28" width="25" height="25.06"/>
    <rect class="cls-2" x="350" y="150.33" width="25" height="25.06"/>
    <rect class="cls-2" x="425" y="150.33" width="25" height="25.06"/>
    <rect class="cls-2" x="400" y="150.33" width="25" height="25.06"/>
    <rect class="cls-2" x="375" y="75.17" width="25" height="25.06"/>
    <rect class="cls-2" x="350" y="75.17" width="25" height="25.06"/>
    <rect class="cls-2" x="375" y="100.22" width="25" height="25.06"/>
    <rect class="cls-2" x="350" y="100.22" width="25" height="25.06"/>
    <rect class="cls-2" x="350" y="50.11" width="25" height="25.06"/>
    <rect class="cls-2" x="275" y="25.06" width="25" height="25.06"/>
    <rect class="cls-2" x="250" y="25.06" width="25" height="25.06"/>
    <rect class="cls-2" x="300" y="25.06" width="25" height="25.06"/>
    <rect class="cls-2" x="275" y="50.11" width="25" height="25.06"/>
    <rect class="cls-2" x="250" y="50.11" width="25" height="25.06"/>
    <rect class="cls-2" x="325" y="50.11" width="25" height="25.06"/>
    <rect class="cls-2" x="275" y="75.17" width="25" height="25.06"/>
    <rect class="cls-2" x="250" y="75.17" width="25" height="25.06"/>
    <rect class="cls-2" x="325" y="75.17" width="25" height="25.06"/>
    <rect class="cls-2" x="250" y="100.22" width="25" height="25.06"/>
    <rect class="cls-2" x="325" y="100.22" width="25" height="25.06"/>
    <rect class="cls-2" x="300" y="100.22" width="25" height="25.06"/>
    <rect class="cls-2" x="250" y="125.28" width="25" height="25.06"/>
    <rect class="cls-2" x="325" y="125.28" width="25" height="25.06"/>
    <rect class="cls-2" x="300" y="125.28" width="25" height="25.06"/>
    <rect class="cls-2" x="275" y="150.33" width="25" height="25.06"/>
    <rect class="cls-2" x="325" y="150.33" width="25" height="25.06"/>
    <rect class="cls-2" x="300" y="150.33" width="25" height="25.06"/>
    <rect class="cls-2" x="425" y="424.2" width="25" height="25.06"/>
    <rect class="cls-2" x="450" y="374.08" width="25" height="25.06"/>
    <rect class="cls-2" x="425" y="374.08" width="25" height="25.06"/>
    <rect class="cls-2" x="450" y="399.14" width="25" height="25.06"/>
    <rect class="cls-2" x="425" y="399.14" width="25" height="25.06"/>
    <rect class="cls-2" x="450" y="148.58" width="25" height="25.06"/>
    <rect class="cls-2" x="450" y="323.97" width="25" height="25.06"/>
    <rect class="cls-2" x="425" y="323.97" width="25" height="25.06"/>
    <rect class="cls-2" x="450" y="349.03" width="25" height="25.06"/>
    <rect class="cls-2" x="425" y="349.03" width="25" height="25.06"/>
    <rect class="cls-2" x="450" y="273.86" width="25" height="25.06"/>
    <rect class="cls-2" x="425" y="273.86" width="25" height="25.06"/>
    <rect class="cls-2" x="450" y="298.92" width="25" height="25.06"/>
    <rect class="cls-2" x="425" y="298.92" width="25" height="25.06"/>
    <rect class="cls-2" x="450" y="223.75" width="25" height="25.06"/>
    <rect class="cls-2" x="450" y="248.81" width="25" height="26.25"/>
    <rect class="cls-2" x="425" y="250.28" width="25" height="25.06"/>
    <rect class="cls-2" x="450" y="173.64" width="25" height="25.06"/>
    <rect class="cls-2" x="425" y="173.64" width="25" height="25.06"/>
    <rect class="cls-2" x="450" y="198.7" width="25" height="25.06"/>
    <rect class="cls-2" x="425" y="198.7" width="25" height="25.06"/>
  </g>
  <g>
    <rect class="cls-1" x="25" y="175.39" width="25" height="25.06"/>
    <rect class="cls-1" y="200.45" width="25" height="25.06"/>
    <rect class="cls-1" y="224.94" width="25" height="25.06"/>
    <rect class="cls-1" y="250" width="25" height="25.06"/>
    <rect class="cls-1" x="25" y="274.5" width="25" height="25.06"/>
    <rect class="cls-1" x="25" y="299.55" width="25" height="25.06"/>
    <rect class="cls-1" x="50" y="324.61" width="25" height="25.06"/>
    <rect class="cls-1" x="50" y="349.67" width="25" height="25.06"/>
    <rect class="cls-1" x="75" y="374.72" width="25" height="25.06"/>
    <rect class="cls-1" x="75" y="399.78" width="25" height="25.06"/>
    <rect class="cls-1" x="100" y="424.83" width="25" height="25.06"/>
    <rect class="cls-1" x="125" y="449.89" width="25" height="25.06"/>
    <rect class="cls-1" x="150" y="449.89" width="25" height="25.06"/>
    <rect class="cls-1" x="175" y="474.94" width="25" height="25.06"/>
    <rect class="cls-1" x="200" y="474.94" width="25" height="25.06"/>
    <rect class="cls-1" x="225" y="474.94" width="25" height="25.06"/>
    <rect class="cls-1" x="250" y="474.94" width="25" height="25.06"/>
    <rect class="cls-1" x="275" y="474.94" width="25" height="25.06"/>
    <rect class="cls-1" x="300" y="474.94" width="25" height="25.06"/>
    <rect class="cls-1" x="325" y="474.94" width="25" height="25.06"/>
    <rect class="cls-1" x="350" y="474.94" width="25" height="25.06"/>
    <rect class="cls-1" x="375" y="474.94" width="25" height="25.06"/>
    <rect class="cls-1" x="400" y="474.94" width="25" height="25.06"/>
    <rect class="cls-1" x="425" y="449.89" width="25" height="25.06"/>
    <rect class="cls-1" x="450" y="424.83" width="25" height="25.06"/>
    <rect class="cls-1" x="475" y="399.78" width="25" height="25.06"/>
    <rect class="cls-1" x="475" y="374.72" width="25" height="25.06"/>
    <rect class="cls-1" x="475" y="349.67" width="25" height="25.06"/>
    <rect class="cls-1" x="475" y="324.61" width="25" height="25.06"/>
    <rect class="cls-1" x="475" y="299.55" width="25" height="25.06"/>
    <rect class="cls-1" x="475" y="274.5" width="25" height="25.06"/>
    <rect class="cls-1" x="475" y="250" width="25" height="25.06"/>
    <rect class="cls-1" x="475" y="224.94" width="25" height="25.06"/>
    <rect class="cls-1" x="475" y="200.45" width="25" height="25.06"/>
    <rect class="cls-1" x="475" y="175.39" width="25" height="25.06"/>
    <rect class="cls-1" x="475" y="148.58" width="25" height="27.36"/>
    <rect class="cls-1" x="450" y="125.28" width="25" height="25.06"/>
    <rect class="cls-1" x="375" y="50.11" width="25" height="25.06"/>
    <rect class="cls-1" x="425" y="100.22" width="25" height="25.06"/>
    <rect class="cls-1" x="400" y="75.17" width="25" height="25.06"/>
    <rect class="cls-1" x="400" y="100.22" width="25" height="25.06"/>
    <rect class="cls-1" x="350" y="25.06" width="25" height="25.06"/>
    <rect class="cls-1" x="325" y="25.06" width="25" height="25.06"/>
    <rect class="cls-1" x="300" width="25" height="25.06"/>
    <rect class="cls-1" x="275" width="25" height="25.06"/>
    <rect class="cls-1" x="250" width="25" height="25.06"/>
    <rect class="cls-1" x="225" y="25.06" width="25" height="25.06"/>
    <rect class="cls-1" x="200" width="25" height="25.06"/>
    <rect class="cls-1" x="175" width="25" height="25.06"/>
    <rect class="cls-1" x="150" width="25" height="25.06"/>
    <rect class="cls-1" x="125" y="25.06" width="25" height="25.06"/>
    <rect class="cls-1" x="100" y="50.11" width="25" height="25.06"/>
    <rect class="cls-1" x="100" y="75.17" width="25" height="25.06"/>
    <rect class="cls-1" x="100" y="100.22" width="25" height="25.06"/>
    <rect class="cls-1" x="50" y="150.89" width="25" height="25.06"/>
    <rect class="cls-1" x="75" y="125.28" width="25" height="25.06"/>
    <rect class="cls-1" x="100" y="125.28" width="25" height="25.06"/>
    <rect class="cls-1" x="125" y="125.28" width="25" height="25.06"/>
    <rect class="cls-1" x="150" y="125.28" width="25" height="25.06"/>
    <rect class="cls-1" x="175" y="125.28" width="25" height="25.06"/>
    <rect class="cls-1" x="200" y="125.28" width="25" height="25.06"/>
    <rect class="cls-1" x="200" y="100.22" width="25" height="25.06"/>
    <rect class="cls-1" x="200" y="75.17" width="25" height="25.06"/>
    <rect class="cls-1" x="200" y="50.11" width="25" height="25.06"/>
    <rect class="cls-1" x="225" y="125.28" width="25" height="25.06"/>
    <rect class="cls-1" x="250" y="150.89" width="25" height="25.06"/>
    <rect class="cls-1" x="250" y="175.39" width="25" height="25.06"/>
    <rect class="cls-1" x="275" y="124.16" width="25" height="26.73"/>
    <rect class="cls-1" x="275" y="99.11" width="25" height="25.06"/>
    <rect class="cls-1" x="300" y="74.05" width="25" height="25.06"/>
    <rect class="cls-1" x="300" y="49.83" width="25" height="25.06"/>
    <rect class="cls-1" x="375" y="125.28" width="25" height="25.06"/>
    <rect class="cls-1" x="375" y="148.58" width="25" height="27.36"/>
    <rect class="cls-1" x="350" y="200.45" width="25" height="25.06"/>
    <rect class="cls-1" x="350" y="175.39" width="25" height="25.06"/>
    <rect class="cls-1" x="325" y="225.22" width="25" height="25.06"/>
    <rect class="cls-1" x="325" y="250.28" width="25" height="25.06"/>
    <rect class="cls-1" x="350" y="275.33" width="25" height="25.06"/>
    <rect class="cls-1" x="375" y="275.33" width="25" height="25.06"/>
    <rect class="cls-1" x="400" y="250.28" width="25" height="25.06"/>
    <rect class="cls-1" x="425" y="225.22" width="25" height="25.06"/>
    <rect class="cls-1" x="225" y="200.45" width="25" height="25.06"/>
    <rect class="cls-1" x="275" y="200.45" width="25" height="25.06"/>
    <rect class="cls-1" x="300" y="200.45" width="25" height="25.06"/>
    <rect class="cls-1" x="200" y="224.94" width="25" height="25.06"/>
    <rect class="cls-1" x="175" y="224.94" width="25" height="25.06"/>
    <rect class="cls-1" x="150" y="224.94" width="25" height="25.06"/>
    <rect class="cls-1" x="125" y="224.94" width="25" height="25.06"/>
    <rect class="cls-1" x="100" y="200.45" width="25" height="25.06"/>
    <rect class="cls-1" x="100" y="250" width="25" height="25.06"/>
    <rect class="cls-1" x="75" y="275.06" width="25" height="25.06"/>
  </g>
</svg>